<?xml version="1.0" encoding="utf-8"?>
<!-- Generator: Adobe Illustrator 27.5.0, SVG Export Plug-In . SVG Version: 6.00 Build 0)  -->
<svg version="1.1" id="Layer_1" xmlns="http://www.w3.org/2000/svg" xmlns:xlink="http://www.w3.org/1999/xlink" x="0px" y="0px"
	 viewBox="0 0 1000 1000" style="enable-background:new 0 0 1000 1000;" xml:space="preserve">
<g>
	<circle style="fill:#262626;" cx="428" cy="68" r="0.1"/>
	<circle style="fill:#262626;" cx="464" cy="68" r="0.1"/>
	<circle style="fill:#262626;" cx="500" cy="68" r="0.1"/>
	<circle style="fill:#262626;" cx="536" cy="68" r="0.1"/>
	<circle style="fill:#262626;" cx="572" cy="68" r="0.1"/>
	<circle style="fill:#262626;" cx="320" cy="104" r="0.1"/>
	<circle style="fill:#262626;" cx="356" cy="104" r="0.1"/>
	<circle style="fill:#262626;" cx="392" cy="104" r="0.2"/>
	<circle style="fill:#262626;" cx="428" cy="104" r="0.299"/>
	<circle style="fill:#262626;" cx="464" cy="104" r="0.399"/>
	<circle style="fill:#262626;" cx="500" cy="104" r="0.399"/>
	<circle style="fill:#262626;" cx="536" cy="104" r="0.399"/>
	<circle style="fill:#262626;" cx="572" cy="104" r="0.299"/>
	<circle style="fill:#262626;" cx="608" cy="104" r="0.2"/>
	<circle style="fill:#262626;" cx="644" cy="104" r="0.2"/>
	<circle style="fill:#262626;" cx="680" cy="104" r="0.1"/>
	<circle style="fill:#262626;" cx="284" cy="140" r="0.2"/>
	<circle style="fill:#262626;" cx="320" cy="140" r="0.299"/>
	<circle style="fill:#262626;" cx="356" cy="140" r="0.499"/>
	<circle style="fill:#262626;" cx="392" cy="140" r="0.699"/>
	<circle style="fill:#262626;" cx="428" cy="140" r="0.799"/>
	<circle style="fill:#262626;" cx="464" cy="140" r="0.998"/>
	<circle style="fill:#262626;" cx="500" cy="140" r="0.998"/>
	<circle style="fill:#262626;" cx="536" cy="140" r="0.998"/>
	<circle style="fill:#262626;" cx="572" cy="140" r="0.898"/>
	<circle style="fill:#262626;" cx="608" cy="140" r="0.699"/>
	<circle style="fill:#262626;" cx="644" cy="140" r="0.499"/>
	<circle style="fill:#262626;" cx="680" cy="140" r="0.299"/>
	<circle style="fill:#262626;" cx="716" cy="140" r="0.2"/>
	<circle style="fill:#262626;" cx="752" cy="140" r="0.1"/>
	<circle style="fill:#262626;" cx="212" cy="176" r="0.1"/>
	<circle style="fill:#262626;" cx="248" cy="176" r="0.2"/>
	<circle style="fill:#262626;" cx="284" cy="176" r="0.499"/>
	<circle style="fill:#262626;" cx="320" cy="176" r="0.799"/>
	<circle style="fill:#262626;" cx="356" cy="176" r="1.098"/>
	<circle style="fill:#262626;" cx="392" cy="176" r="1.398"/>
	<circle style="fill:#262626;" cx="428" cy="176" r="1.597"/>
	<circle style="fill:#262626;" cx="464" cy="176" r="1.797"/>
	<circle style="fill:#262626;" cx="500" cy="176" r="1.897"/>
	<circle style="fill:#262626;" cx="536" cy="176" r="1.797"/>
	<circle style="fill:#262626;" cx="572" cy="176" r="1.697"/>
	<circle style="fill:#262626;" cx="608" cy="176" r="1.398"/>
	<circle style="fill:#262626;" cx="644" cy="176" r="1.098"/>
	<circle style="fill:#262626;" cx="680" cy="176" r="0.799"/>
	<circle style="fill:#262626;" cx="716" cy="176" r="0.499"/>
	<circle style="fill:#262626;" cx="752" cy="176" r="0.299"/>
	<circle style="fill:#262626;" cx="788" cy="176" r="0.1"/>
	<circle style="fill:#262626;" cx="176" cy="212" r="0.1"/>
	<circle style="fill:#262626;" cx="212" cy="212" r="0.2"/>
	<circle style="fill:#262626;" cx="248" cy="212" r="0.599"/>
	<circle style="fill:#262626;" cx="284" cy="212" r="0.998"/>
	<circle style="fill:#262626;" cx="320" cy="212" r="1.398"/>
	<circle style="fill:#262626;" cx="356" cy="212" r="1.897"/>
	<circle style="fill:#262626;" cx="392" cy="212" r="2.296"/>
	<circle style="fill:#262626;" cx="428" cy="212" r="2.695"/>
	<circle style="fill:#262626;" cx="464" cy="212" r="2.895"/>
	<circle style="fill:#262626;" cx="500" cy="212" r="2.995"/>
	<circle style="fill:#262626;" cx="536" cy="212" r="2.995"/>
	<circle style="fill:#262626;" cx="572" cy="212" r="2.695"/>
	<circle style="fill:#262626;" cx="608" cy="212" r="2.396"/>
	<circle style="fill:#262626;" cx="644" cy="212" r="1.997"/>
	<circle style="fill:#262626;" cx="680" cy="212" r="1.497"/>
	<circle style="fill:#262626;" cx="716" cy="212" r="0.998"/>
	<circle style="fill:#262626;" cx="752" cy="212" r="0.599"/>
	<circle style="fill:#262626;" cx="788" cy="212" r="0.299"/>
	<circle style="fill:#262626;" cx="824" cy="212" r="0.1"/>
	<circle style="fill:#262626;" cx="176" cy="248" r="0.2"/>
	<circle style="fill:#262626;" cx="212" cy="248" r="0.599"/>
	<circle style="fill:#262626;" cx="248" cy="248" r="0.998"/>
	<circle style="fill:#262626;" cx="284" cy="248" r="1.597"/>
	<circle style="fill:#262626;" cx="320" cy="248" r="2.296"/>
	<circle style="fill:#262626;" cx="356" cy="248" r="2.895"/>
	<circle style="fill:#262626;" cx="392" cy="248" r="3.494"/>
	<circle style="fill:#262626;" cx="428" cy="248" r="3.993"/>
	<circle style="fill:#262626;" cx="464" cy="248" r="4.392"/>
	<circle style="fill:#262626;" cx="500" cy="248" r="4.492"/>
	<circle style="fill:#262626;" cx="536" cy="248" r="4.392"/>
	<circle style="fill:#262626;" cx="572" cy="248" r="4.093"/>
	<circle style="fill:#262626;" cx="608" cy="248" r="3.594"/>
	<circle style="fill:#262626;" cx="644" cy="248" r="2.995"/>
	<circle style="fill:#262626;" cx="680" cy="248" r="2.296"/>
	<circle style="fill:#262626;" cx="716" cy="248" r="1.697"/>
	<circle style="fill:#262626;" cx="752" cy="248" r="1.098"/>
	<circle style="fill:#262626;" cx="788" cy="248" r="0.599"/>
	<circle style="fill:#262626;" cx="824" cy="248" r="0.299"/>
	<circle style="fill:#262626;" cx="860" cy="248" r="0.1"/>
	<circle style="fill:#262626;" cx="140" cy="284" r="0.2"/>
	<circle style="fill:#262626;" cx="176" cy="284" r="0.499"/>
	<circle style="fill:#262626;" cx="212" cy="284" r="0.998"/>
	<circle style="fill:#262626;" cx="248" cy="284" r="1.597"/>
	<circle style="fill:#262626;" cx="284" cy="284" r="2.396"/>
	<circle style="fill:#262626;" cx="320" cy="284" r="3.194"/>
	<circle style="fill:#262626;" cx="356" cy="284" r="4.093"/>
	<circle style="fill:#262626;" cx="392" cy="284" r="4.892"/>
	<circle style="fill:#262626;" cx="428" cy="284" r="5.59"/>
	<circle style="fill:#262626;" cx="464" cy="284" r="6.089"/>
	<circle style="fill:#262626;" cx="500" cy="284" r="6.289"/>
	<circle style="fill:#262626;" cx="536" cy="284" r="6.089"/>
	<circle style="fill:#262626;" cx="572" cy="284" r="5.69"/>
	<circle style="fill:#262626;" cx="608" cy="284" r="4.991"/>
	<circle style="fill:#262626;" cx="644" cy="284" r="4.193"/>
	<circle style="fill:#262626;" cx="680" cy="284" r="3.394"/>
	<circle style="fill:#262626;" cx="716" cy="284" r="2.496"/>
	<circle style="fill:#262626;" cx="752" cy="284" r="1.697"/>
	<circle style="fill:#262626;" cx="788" cy="284" r="0.998"/>
	<circle style="fill:#262626;" cx="824" cy="284" r="0.499"/>
	<circle style="fill:#262626;" cx="860" cy="284" r="0.2"/>
	<circle style="fill:#262626;" cx="104" cy="320" r="0.1"/>
	<circle style="fill:#262626;" cx="140" cy="320" r="0.299"/>
	<circle style="fill:#262626;" cx="176" cy="320" r="0.799"/>
	<circle style="fill:#262626;" cx="212" cy="320" r="1.398"/>
	<circle style="fill:#262626;" cx="248" cy="320" r="2.296"/>
	<circle style="fill:#262626;" cx="284" cy="320" r="3.194"/>
	<circle style="fill:#262626;" cx="320" cy="320" r="4.392"/>
	<circle style="fill:#262626;" cx="356" cy="320" r="5.49"/>
	<circle style="fill:#262626;" cx="392" cy="320" r="6.589"/>
	<circle style="fill:#262626;" cx="428" cy="320" r="7.487"/>
	<circle style="fill:#262626;" cx="464" cy="320" r="8.186"/>
	<circle style="fill:#262626;" cx="500" cy="320" r="8.385"/>
	<circle style="fill:#262626;" cx="536" cy="320" r="8.286"/>
	<circle style="fill:#262626;" cx="572" cy="320" r="7.587"/>
	<circle style="fill:#262626;" cx="608" cy="320" r="6.688"/>
	<circle style="fill:#262626;" cx="644" cy="320" r="5.59"/>
	<circle style="fill:#262626;" cx="680" cy="320" r="4.492"/>
	<circle style="fill:#262626;" cx="716" cy="320" r="3.394"/>
	<circle style="fill:#262626;" cx="752" cy="320" r="2.396"/>
	<circle style="fill:#262626;" cx="788" cy="320" r="1.497"/>
	<circle style="fill:#262626;" cx="824" cy="320" r="0.799"/>
	<circle style="fill:#262626;" cx="860" cy="320" r="0.399"/>
	<circle style="fill:#262626;" cx="896" cy="320" r="0.1"/>
	<circle style="fill:#262626;" cx="104" cy="356" r="0.1"/>
	<circle style="fill:#262626;" cx="140" cy="356" r="0.499"/>
	<circle style="fill:#262626;" cx="176" cy="356" r="1.098"/>
	<circle style="fill:#262626;" cx="212" cy="356" r="1.897"/>
	<circle style="fill:#262626;" cx="248" cy="356" r="2.895"/>
	<circle style="fill:#262626;" cx="284" cy="356" r="4.093"/>
	<circle style="fill:#262626;" cx="320" cy="356" r="5.49"/>
	<circle style="fill:#262626;" cx="356" cy="356" r="6.888"/>
	<circle style="fill:#262626;" cx="392" cy="356" r="8.385"/>
	<circle style="fill:#262626;" cx="428" cy="356" r="9.783"/>
	<circle style="fill:#262626;" cx="464" cy="356" r="10.681"/>
	<circle style="fill:#262626;" cx="500" cy="356" r="11.081"/>
	<circle style="fill:#262626;" cx="536" cy="356" r="10.781"/>
	<circle style="fill:#262626;" cx="572" cy="356" r="9.883"/>
	<circle style="fill:#262626;" cx="608" cy="356" r="8.585"/>
	<circle style="fill:#262626;" cx="644" cy="356" r="7.088"/>
	<circle style="fill:#262626;" cx="680" cy="356" r="5.59"/>
	<circle style="fill:#262626;" cx="716" cy="356" r="4.293"/>
	<circle style="fill:#262626;" cx="752" cy="356" r="2.995"/>
	<circle style="fill:#262626;" cx="788" cy="356" r="1.997"/>
	<circle style="fill:#262626;" cx="824" cy="356" r="1.198"/>
	<circle style="fill:#262626;" cx="860" cy="356" r="0.599"/>
	<circle style="fill:#262626;" cx="896" cy="356" r="0.2"/>
	<circle style="fill:#262626;" cx="104" cy="392" r="0.2"/>
	<circle style="fill:#262626;" cx="140" cy="392" r="0.699"/>
	<circle style="fill:#262626;" cx="176" cy="392" r="1.398"/>
	<circle style="fill:#262626;" cx="212" cy="392" r="2.296"/>
	<circle style="fill:#262626;" cx="248" cy="392" r="3.494"/>
	<circle style="fill:#262626;" cx="284" cy="392" r="4.892"/>
	<circle style="fill:#262626;" cx="320" cy="392" r="6.589"/>
	<circle style="fill:#262626;" cx="356" cy="392" r="8.385"/>
	<circle style="fill:#262626;" cx="392" cy="392" r="10.382"/>
	<circle style="fill:#262626;" cx="428" cy="392" r="12.279"/>
	<circle style="fill:#262626;" cx="464" cy="392" r="13.676"/>
	<circle style="fill:#262626;" cx="500" cy="392" r="14.275"/>
	<circle style="fill:#262626;" cx="536" cy="392" r="13.876"/>
	<circle style="fill:#262626;" cx="572" cy="392" r="12.379"/>
	<circle style="fill:#262626;" cx="608" cy="392" r="10.582"/>
	<circle style="fill:#262626;" cx="644" cy="392" r="8.585"/>
	<circle style="fill:#262626;" cx="680" cy="392" r="6.788"/>
	<circle style="fill:#262626;" cx="716" cy="392" r="5.091"/>
	<circle style="fill:#262626;" cx="752" cy="392" r="3.694"/>
	<circle style="fill:#262626;" cx="788" cy="392" r="2.496"/>
	<circle style="fill:#262626;" cx="824" cy="392" r="1.497"/>
	<circle style="fill:#262626;" cx="860" cy="392" r="0.699"/>
	<circle style="fill:#262626;" cx="896" cy="392" r="0.299"/>
	<circle style="fill:#262626;" cx="68" cy="428" r="0.1"/>
	<circle style="fill:#262626;" cx="104" cy="428" r="0.299"/>
	<circle style="fill:#262626;" cx="140" cy="428" r="0.799"/>
	<circle style="fill:#262626;" cx="176" cy="428" r="1.597"/>
	<circle style="fill:#262626;" cx="212" cy="428" r="2.695"/>
	<circle style="fill:#262626;" cx="248" cy="428" r="3.993"/>
	<circle style="fill:#262626;" cx="284" cy="428" r="5.59"/>
	<circle style="fill:#262626;" cx="320" cy="428" r="7.487"/>
	<circle style="fill:#262626;" cx="356" cy="428" r="9.783"/>
	<circle style="fill:#262626;" cx="392" cy="428" r="12.279"/>
	<circle style="fill:#262626;" cx="428" cy="428" r="14.874"/>
	<circle style="fill:#262626;" cx="464" cy="428" r="17.17"/>
	<circle style="fill:#262626;" cx="500" cy="428" r="18.168"/>
	<circle style="fill:#262626;" cx="536" cy="428" r="17.27"/>
	<circle style="fill:#262626;" cx="572" cy="428" r="15.074"/>
	<circle style="fill:#262626;" cx="608" cy="428" r="12.478"/>
	<circle style="fill:#262626;" cx="644" cy="428" r="9.983"/>
	<circle style="fill:#262626;" cx="680" cy="428" r="7.786"/>
	<circle style="fill:#262626;" cx="716" cy="428" r="5.79"/>
	<circle style="fill:#262626;" cx="752" cy="428" r="4.193"/>
	<circle style="fill:#262626;" cx="788" cy="428" r="2.795"/>
	<circle style="fill:#262626;" cx="824" cy="428" r="1.797"/>
	<circle style="fill:#262626;" cx="860" cy="428" r="0.898"/>
	<circle style="fill:#262626;" cx="896" cy="428" r="0.399"/>
	<circle style="fill:#262626;" cx="932" cy="428" r="0.1"/>
	<circle style="fill:#262626;" cx="68" cy="464" r="0.1"/>
	<circle style="fill:#262626;" cx="104" cy="464" r="0.399"/>
	<circle style="fill:#262626;" cx="140" cy="464" r="0.998"/>
	<circle style="fill:#262626;" cx="176" cy="464" r="1.797"/>
	<circle style="fill:#262626;" cx="212" cy="464" r="2.895"/>
	<circle style="fill:#262626;" cx="248" cy="464" r="4.392"/>
	<circle style="fill:#262626;" cx="284" cy="464" r="6.089"/>
	<circle style="fill:#262626;" cx="320" cy="464" r="8.186"/>
	<circle style="fill:#262626;" cx="356" cy="464" r="10.681"/>
	<circle style="fill:#262626;" cx="392" cy="464" r="13.676"/>
	<circle style="fill:#262626;" cx="428" cy="464" r="17.17"/>
	<circle style="fill:#262626;" cx="464" cy="464" r="20.564"/>
	<circle style="fill:#262626;" cx="500" cy="464" r="22.561"/>
	<circle style="fill:#262626;" cx="536" cy="464" r="20.864"/>
	<circle style="fill:#262626;" cx="572" cy="464" r="17.47"/>
	<circle style="fill:#262626;" cx="608" cy="464" r="14.076"/>
	<circle style="fill:#262626;" cx="644" cy="464" r="10.981"/>
	<circle style="fill:#262626;" cx="680" cy="464" r="8.385"/>
	<circle style="fill:#262626;" cx="716" cy="464" r="6.289"/>
	<circle style="fill:#262626;" cx="752" cy="464" r="4.492"/>
	<circle style="fill:#262626;" cx="788" cy="464" r="3.095"/>
	<circle style="fill:#262626;" cx="824" cy="464" r="1.897"/>
	<circle style="fill:#262626;" cx="860" cy="464" r="0.998"/>
	<circle style="fill:#262626;" cx="896" cy="464" r="0.399"/>
	<circle style="fill:#262626;" cx="932" cy="464" r="0.1"/>
	<circle style="fill:#262626;" cx="68" cy="500" r="0.1"/>
	<circle style="fill:#262626;" cx="104" cy="500" r="0.399"/>
	<circle style="fill:#262626;" cx="140" cy="500" r="0.998"/>
	<circle style="fill:#262626;" cx="176" cy="500" r="1.897"/>
	<circle style="fill:#262626;" cx="212" cy="500" r="2.995"/>
	<circle style="fill:#262626;" cx="248" cy="500" r="4.492"/>
	<circle style="fill:#262626;" cx="284" cy="500" r="6.289"/>
	<circle style="fill:#262626;" cx="320" cy="500" r="8.385"/>
	<circle style="fill:#262626;" cx="356" cy="500" r="11.081"/>
	<circle style="fill:#262626;" cx="392" cy="500" r="14.275"/>
	<circle style="fill:#262626;" cx="428" cy="500" r="18.168"/>
	<circle style="fill:#262626;" cx="464" cy="500" r="22.561"/>
	<circle style="fill:#262626;" cx="500" cy="500" r="25.356"/>
	<circle style="fill:#262626;" cx="536" cy="500" r="23.06"/>
	<circle style="fill:#262626;" cx="572" cy="500" r="18.668"/>
	<circle style="fill:#262626;" cx="608" cy="500" r="14.675"/>
	<circle style="fill:#262626;" cx="644" cy="500" r="11.38"/>
	<circle style="fill:#262626;" cx="680" cy="500" r="8.685"/>
	<circle style="fill:#262626;" cx="716" cy="500" r="6.489"/>
	<circle style="fill:#262626;" cx="752" cy="500" r="4.692"/>
	<circle style="fill:#262626;" cx="788" cy="500" r="3.194"/>
	<circle style="fill:#262626;" cx="824" cy="500" r="1.997"/>
	<circle style="fill:#262626;" cx="860" cy="500" r="1.098"/>
	<circle style="fill:#262626;" cx="896" cy="500" r="0.399"/>
	<circle style="fill:#262626;" cx="932" cy="500" r="0.1"/>
	<circle style="fill:#262626;" cx="68" cy="536" r="0.1"/>
	<circle style="fill:#262626;" cx="104" cy="536" r="0.399"/>
	<circle style="fill:#262626;" cx="140" cy="536" r="0.998"/>
	<circle style="fill:#262626;" cx="176" cy="536" r="1.797"/>
	<circle style="fill:#262626;" cx="212" cy="536" r="2.995"/>
	<circle style="fill:#262626;" cx="248" cy="536" r="4.392"/>
	<circle style="fill:#262626;" cx="284" cy="536" r="6.089"/>
	<circle style="fill:#262626;" cx="320" cy="536" r="8.286"/>
	<circle style="fill:#262626;" cx="356" cy="536" r="10.781"/>
	<circle style="fill:#262626;" cx="392" cy="536" r="13.876"/>
	<circle style="fill:#262626;" cx="428" cy="536" r="17.27"/>
	<circle style="fill:#262626;" cx="464" cy="536" r="20.864"/>
	<circle style="fill:#262626;" cx="500" cy="536" r="23.06"/>
	<circle style="fill:#262626;" cx="536" cy="536" r="21.263"/>
	<circle style="fill:#262626;" cx="572" cy="536" r="17.669"/>
	<circle style="fill:#262626;" cx="608" cy="536" r="14.175"/>
	<circle style="fill:#262626;" cx="644" cy="536" r="11.081"/>
	<circle style="fill:#262626;" cx="680" cy="536" r="8.485"/>
	<circle style="fill:#262626;" cx="716" cy="536" r="6.289"/>
	<circle style="fill:#262626;" cx="752" cy="536" r="4.492"/>
	<circle style="fill:#262626;" cx="788" cy="536" r="3.095"/>
	<circle style="fill:#262626;" cx="824" cy="536" r="1.897"/>
	<circle style="fill:#262626;" cx="860" cy="536" r="0.998"/>
	<circle style="fill:#262626;" cx="896" cy="536" r="0.399"/>
	<circle style="fill:#262626;" cx="932" cy="536" r="0.1"/>
	<circle style="fill:#262626;" cx="68" cy="572" r="0.1"/>
	<circle style="fill:#262626;" cx="104" cy="572" r="0.299"/>
	<circle style="fill:#262626;" cx="140" cy="572" r="0.898"/>
	<circle style="fill:#262626;" cx="176" cy="572" r="1.697"/>
	<circle style="fill:#262626;" cx="212" cy="572" r="2.695"/>
	<circle style="fill:#262626;" cx="248" cy="572" r="4.093"/>
	<circle style="fill:#262626;" cx="284" cy="572" r="5.69"/>
	<circle style="fill:#262626;" cx="320" cy="572" r="7.587"/>
	<circle style="fill:#262626;" cx="356" cy="572" r="9.883"/>
	<circle style="fill:#262626;" cx="392" cy="572" r="12.379"/>
	<circle style="fill:#262626;" cx="428" cy="572" r="15.074"/>
	<circle style="fill:#262626;" cx="464" cy="572" r="17.47"/>
	<circle style="fill:#262626;" cx="500" cy="572" r="18.668"/>
	<circle style="fill:#262626;" cx="536" cy="572" r="17.669"/>
	<circle style="fill:#262626;" cx="572" cy="572" r="15.373"/>
	<circle style="fill:#262626;" cx="608" cy="572" r="12.678"/>
	<circle style="fill:#262626;" cx="644" cy="572" r="10.083"/>
	<circle style="fill:#262626;" cx="680" cy="572" r="7.786"/>
	<circle style="fill:#262626;" cx="716" cy="572" r="5.89"/>
	<circle style="fill:#262626;" cx="752" cy="572" r="4.193"/>
	<circle style="fill:#262626;" cx="788" cy="572" r="2.895"/>
	<circle style="fill:#262626;" cx="824" cy="572" r="1.797"/>
	<circle style="fill:#262626;" cx="860" cy="572" r="0.898"/>
	<circle style="fill:#262626;" cx="896" cy="572" r="0.399"/>
	<circle style="fill:#262626;" cx="932" cy="572" r="0.1"/>
	<circle style="fill:#262626;" cx="104" cy="608" r="0.2"/>
	<circle style="fill:#262626;" cx="140" cy="608" r="0.699"/>
	<circle style="fill:#262626;" cx="176" cy="608" r="1.398"/>
	<circle style="fill:#262626;" cx="212" cy="608" r="2.396"/>
	<circle style="fill:#262626;" cx="248" cy="608" r="3.594"/>
	<circle style="fill:#262626;" cx="284" cy="608" r="4.991"/>
	<circle style="fill:#262626;" cx="320" cy="608" r="6.688"/>
	<circle style="fill:#262626;" cx="356" cy="608" r="8.585"/>
	<circle style="fill:#262626;" cx="392" cy="608" r="10.582"/>
	<circle style="fill:#262626;" cx="428" cy="608" r="12.478"/>
	<circle style="fill:#262626;" cx="464" cy="608" r="14.076"/>
	<circle style="fill:#262626;" cx="500" cy="608" r="14.675"/>
	<circle style="fill:#262626;" cx="536" cy="608" r="14.175"/>
	<circle style="fill:#262626;" cx="572" cy="608" r="12.678"/>
	<circle style="fill:#262626;" cx="608" cy="608" r="10.781"/>
	<circle style="fill:#262626;" cx="644" cy="608" r="8.785"/>
	<circle style="fill:#262626;" cx="680" cy="608" r="6.888"/>
	<circle style="fill:#262626;" cx="716" cy="608" r="5.191"/>
	<circle style="fill:#262626;" cx="752" cy="608" r="3.694"/>
	<circle style="fill:#262626;" cx="788" cy="608" r="2.496"/>
	<circle style="fill:#262626;" cx="824" cy="608" r="1.497"/>
	<circle style="fill:#262626;" cx="860" cy="608" r="0.799"/>
	<circle style="fill:#262626;" cx="896" cy="608" r="0.299"/>
	<circle style="fill:#262626;" cx="104" cy="644" r="0.2"/>
	<circle style="fill:#262626;" cx="140" cy="644" r="0.499"/>
	<circle style="fill:#262626;" cx="176" cy="644" r="1.098"/>
	<circle style="fill:#262626;" cx="212" cy="644" r="1.997"/>
	<circle style="fill:#262626;" cx="248" cy="644" r="2.995"/>
	<circle style="fill:#262626;" cx="284" cy="644" r="4.193"/>
	<circle style="fill:#262626;" cx="320" cy="644" r="5.59"/>
	<circle style="fill:#262626;" cx="356" cy="644" r="7.088"/>
	<circle style="fill:#262626;" cx="392" cy="644" r="8.585"/>
	<circle style="fill:#262626;" cx="428" cy="644" r="9.983"/>
	<circle style="fill:#262626;" cx="464" cy="644" r="10.981"/>
	<circle style="fill:#262626;" cx="500" cy="644" r="11.38"/>
	<circle style="fill:#262626;" cx="536" cy="644" r="11.081"/>
	<circle style="fill:#262626;" cx="572" cy="644" r="10.083"/>
	<circle style="fill:#262626;" cx="608" cy="644" r="8.785"/>
	<circle style="fill:#262626;" cx="644" cy="644" r="7.287"/>
	<circle style="fill:#262626;" cx="680" cy="644" r="5.69"/>
	<circle style="fill:#262626;" cx="716" cy="644" r="4.392"/>
	<circle style="fill:#262626;" cx="752" cy="644" r="3.095"/>
	<circle style="fill:#262626;" cx="788" cy="644" r="1.997"/>
	<circle style="fill:#262626;" cx="824" cy="644" r="1.198"/>
	<circle style="fill:#262626;" cx="860" cy="644" r="0.599"/>
	<circle style="fill:#262626;" cx="896" cy="644" r="0.2"/>
	<circle style="fill:#262626;" cx="104" cy="680" r="0.1"/>
	<circle style="fill:#262626;" cx="140" cy="680" r="0.299"/>
	<circle style="fill:#262626;" cx="176" cy="680" r="0.799"/>
	<circle style="fill:#262626;" cx="212" cy="680" r="1.497"/>
	<circle style="fill:#262626;" cx="248" cy="680" r="2.296"/>
	<circle style="fill:#262626;" cx="284" cy="680" r="3.394"/>
	<circle style="fill:#262626;" cx="320" cy="680" r="4.492"/>
	<circle style="fill:#262626;" cx="356" cy="680" r="5.59"/>
	<circle style="fill:#262626;" cx="392" cy="680" r="6.788"/>
	<circle style="fill:#262626;" cx="428" cy="680" r="7.786"/>
	<circle style="fill:#262626;" cx="464" cy="680" r="8.385"/>
	<circle style="fill:#262626;" cx="500" cy="680" r="8.685"/>
	<circle style="fill:#262626;" cx="536" cy="680" r="8.485"/>
	<circle style="fill:#262626;" cx="572" cy="680" r="7.786"/>
	<circle style="fill:#262626;" cx="608" cy="680" r="6.888"/>
	<circle style="fill:#262626;" cx="644" cy="680" r="5.69"/>
	<circle style="fill:#262626;" cx="680" cy="680" r="4.492"/>
	<circle style="fill:#262626;" cx="716" cy="680" r="3.494"/>
	<circle style="fill:#262626;" cx="752" cy="680" r="2.396"/>
	<circle style="fill:#262626;" cx="788" cy="680" r="1.597"/>
	<circle style="fill:#262626;" cx="824" cy="680" r="0.898"/>
	<circle style="fill:#262626;" cx="860" cy="680" r="0.399"/>
	<circle style="fill:#262626;" cx="896" cy="680" r="0.1"/>
	<circle style="fill:#262626;" cx="140" cy="716" r="0.2"/>
	<circle style="fill:#262626;" cx="176" cy="716" r="0.499"/>
	<circle style="fill:#262626;" cx="212" cy="716" r="0.998"/>
	<circle style="fill:#262626;" cx="248" cy="716" r="1.697"/>
	<circle style="fill:#262626;" cx="284" cy="716" r="2.496"/>
	<circle style="fill:#262626;" cx="320" cy="716" r="3.394"/>
	<circle style="fill:#262626;" cx="356" cy="716" r="4.293"/>
	<circle style="fill:#262626;" cx="392" cy="716" r="5.091"/>
	<circle style="fill:#262626;" cx="428" cy="716" r="5.79"/>
	<circle style="fill:#262626;" cx="464" cy="716" r="6.289"/>
	<circle style="fill:#262626;" cx="500" cy="716" r="6.489"/>
	<circle style="fill:#262626;" cx="536" cy="716" r="6.289"/>
	<circle style="fill:#262626;" cx="572" cy="716" r="5.89"/>
	<circle style="fill:#262626;" cx="608" cy="716" r="5.191"/>
	<circle style="fill:#262626;" cx="644" cy="716" r="4.392"/>
	<circle style="fill:#262626;" cx="680" cy="716" r="3.494"/>
	<circle style="fill:#262626;" cx="716" cy="716" r="2.595"/>
	<circle style="fill:#262626;" cx="752" cy="716" r="1.797"/>
	<circle style="fill:#262626;" cx="788" cy="716" r="1.098"/>
	<circle style="fill:#262626;" cx="824" cy="716" r="0.599"/>
	<circle style="fill:#262626;" cx="860" cy="716" r="0.2"/>
	<circle style="fill:#262626;" cx="140" cy="752" r="0.1"/>
	<circle style="fill:#262626;" cx="176" cy="752" r="0.299"/>
	<circle style="fill:#262626;" cx="212" cy="752" r="0.599"/>
	<circle style="fill:#262626;" cx="248" cy="752" r="1.098"/>
	<circle style="fill:#262626;" cx="284" cy="752" r="1.697"/>
	<circle style="fill:#262626;" cx="320" cy="752" r="2.396"/>
	<circle style="fill:#262626;" cx="356" cy="752" r="2.995"/>
	<circle style="fill:#262626;" cx="392" cy="752" r="3.694"/>
	<circle style="fill:#262626;" cx="428" cy="752" r="4.193"/>
	<circle style="fill:#262626;" cx="464" cy="752" r="4.492"/>
	<circle style="fill:#262626;" cx="500" cy="752" r="4.692"/>
	<circle style="fill:#262626;" cx="536" cy="752" r="4.492"/>
	<circle style="fill:#262626;" cx="572" cy="752" r="4.193"/>
	<circle style="fill:#262626;" cx="608" cy="752" r="3.694"/>
	<circle style="fill:#262626;" cx="644" cy="752" r="3.095"/>
	<circle style="fill:#262626;" cx="680" cy="752" r="2.396"/>
	<circle style="fill:#262626;" cx="716" cy="752" r="1.797"/>
	<circle style="fill:#262626;" cx="752" cy="752" r="1.198"/>
	<circle style="fill:#262626;" cx="788" cy="752" r="0.699"/>
	<circle style="fill:#262626;" cx="824" cy="752" r="0.299"/>
	<circle style="fill:#262626;" cx="860" cy="752" r="0.1"/>
	<circle style="fill:#262626;" cx="176" cy="788" r="0.1"/>
	<circle style="fill:#262626;" cx="212" cy="788" r="0.299"/>
	<circle style="fill:#262626;" cx="248" cy="788" r="0.599"/>
	<circle style="fill:#262626;" cx="284" cy="788" r="0.998"/>
	<circle style="fill:#262626;" cx="320" cy="788" r="1.497"/>
	<circle style="fill:#262626;" cx="356" cy="788" r="1.997"/>
	<circle style="fill:#262626;" cx="392" cy="788" r="2.496"/>
	<circle style="fill:#262626;" cx="428" cy="788" r="2.795"/>
	<circle style="fill:#262626;" cx="464" cy="788" r="3.095"/>
	<circle style="fill:#262626;" cx="500" cy="788" r="3.194"/>
	<circle style="fill:#262626;" cx="536" cy="788" r="3.095"/>
	<circle style="fill:#262626;" cx="572" cy="788" r="2.895"/>
	<circle style="fill:#262626;" cx="608" cy="788" r="2.496"/>
	<circle style="fill:#262626;" cx="644" cy="788" r="1.997"/>
	<circle style="fill:#262626;" cx="680" cy="788" r="1.597"/>
	<circle style="fill:#262626;" cx="716" cy="788" r="1.098"/>
	<circle style="fill:#262626;" cx="752" cy="788" r="0.699"/>
	<circle style="fill:#262626;" cx="788" cy="788" r="0.299"/>
	<circle style="fill:#262626;" cx="824" cy="788" r="0.1"/>
	<circle style="fill:#262626;" cx="212" cy="824" r="0.1"/>
	<circle style="fill:#262626;" cx="248" cy="824" r="0.299"/>
	<circle style="fill:#262626;" cx="284" cy="824" r="0.499"/>
	<circle style="fill:#262626;" cx="320" cy="824" r="0.799"/>
	<circle style="fill:#262626;" cx="356" cy="824" r="1.198"/>
	<circle style="fill:#262626;" cx="392" cy="824" r="1.497"/>
	<circle style="fill:#262626;" cx="428" cy="824" r="1.797"/>
	<circle style="fill:#262626;" cx="464" cy="824" r="1.897"/>
	<circle style="fill:#262626;" cx="500" cy="824" r="1.997"/>
	<circle style="fill:#262626;" cx="536" cy="824" r="1.897"/>
	<circle style="fill:#262626;" cx="572" cy="824" r="1.797"/>
	<circle style="fill:#262626;" cx="608" cy="824" r="1.497"/>
	<circle style="fill:#262626;" cx="644" cy="824" r="1.198"/>
	<circle style="fill:#262626;" cx="680" cy="824" r="0.898"/>
	<circle style="fill:#262626;" cx="716" cy="824" r="0.599"/>
	<circle style="fill:#262626;" cx="752" cy="824" r="0.299"/>
	<circle style="fill:#262626;" cx="788" cy="824" r="0.1"/>
	<circle style="fill:#262626;" cx="248" cy="860" r="0.1"/>
	<circle style="fill:#262626;" cx="284" cy="860" r="0.2"/>
	<circle style="fill:#262626;" cx="320" cy="860" r="0.399"/>
	<circle style="fill:#262626;" cx="356" cy="860" r="0.599"/>
	<circle style="fill:#262626;" cx="392" cy="860" r="0.699"/>
	<circle style="fill:#262626;" cx="428" cy="860" r="0.898"/>
	<circle style="fill:#262626;" cx="464" cy="860" r="0.998"/>
	<circle style="fill:#262626;" cx="500" cy="860" r="1.098"/>
	<circle style="fill:#262626;" cx="536" cy="860" r="0.998"/>
	<circle style="fill:#262626;" cx="572" cy="860" r="0.898"/>
	<circle style="fill:#262626;" cx="608" cy="860" r="0.799"/>
	<circle style="fill:#262626;" cx="644" cy="860" r="0.599"/>
	<circle style="fill:#262626;" cx="680" cy="860" r="0.399"/>
	<circle style="fill:#262626;" cx="716" cy="860" r="0.2"/>
	<circle style="fill:#262626;" cx="752" cy="860" r="0.1"/>
	<circle style="fill:#262626;" cx="320" cy="896" r="0.1"/>
	<circle style="fill:#262626;" cx="356" cy="896" r="0.2"/>
	<circle style="fill:#262626;" cx="392" cy="896" r="0.299"/>
	<circle style="fill:#262626;" cx="428" cy="896" r="0.399"/>
	<circle style="fill:#262626;" cx="464" cy="896" r="0.399"/>
	<circle style="fill:#262626;" cx="500" cy="896" r="0.399"/>
	<circle style="fill:#262626;" cx="536" cy="896" r="0.399"/>
	<circle style="fill:#262626;" cx="572" cy="896" r="0.399"/>
	<circle style="fill:#262626;" cx="608" cy="896" r="0.299"/>
	<circle style="fill:#262626;" cx="644" cy="896" r="0.2"/>
	<circle style="fill:#262626;" cx="680" cy="896" r="0.1"/>
	<circle style="fill:#262626;" cx="428" cy="932" r="0.1"/>
	<circle style="fill:#262626;" cx="464" cy="932" r="0.1"/>
	<circle style="fill:#262626;" cx="500" cy="932" r="0.1"/>
	<circle style="fill:#262626;" cx="536" cy="932" r="0.1"/>
	<circle style="fill:#262626;" cx="572" cy="932" r="0.1"/>
</g>
</svg>
