<svg id="visual" viewBox="0 0 900 600" width="900" height="600" xmlns="http://www.w3.org/2000/svg" xmlns:xlink="http://www.w3.org/1999/xlink" version="1.1"><rect x="0" y="0" width="900" height="600" fill="#000000"></rect><path d="M0 178L25 199.8C50 221.7 100 265.3 150 288.3C200 311.3 250 313.7 300 303.3C350 293 400 270 450 263.2C500 256.3 550 265.7 600 256.7C650 247.7 700 220.3 750 227.8C800 235.3 850 277.7 875 298.8L900 320L900 601L875 601C850 601 800 601 750 601C700 601 650 601 600 601C550 601 500 601 450 601C400 601 350 601 300 601C250 601 200 601 150 601C100 601 50 601 25 601L0 601Z" fill="#d0d0d0"></path><path d="M0 340L25 334.3C50 328.7 100 317.3 150 319.2C200 321 250 336 300 333.7C350 331.3 400 311.7 450 319.5C500 327.3 550 362.7 600 376.3C650 390 700 382 750 372.8C800 363.7 850 353.3 875 348.2L900 343L900 601L875 601C850 601 800 601 750 601C700 601 650 601 600 601C550 601 500 601 450 601C400 601 350 601 300 601C250 601 200 601 150 601C100 601 50 601 25 601L0 601Z" fill="#a9a8ab"></path><path d="M0 483L25 475.7C50 468.3 100 453.7 150 460.2C200 466.7 250 494.3 300 500.5C350 506.7 400 491.3 450 475.2C500 459 550 442 600 435.7C650 429.3 700 433.7 750 438C800 442.3 850 446.7 875 448.8L900 451L900 601L875 601C850 601 800 601 750 601C700 601 650 601 600 601C550 601 500 601 450 601C400 601 350 601 300 601C250 601 200 601 150 601C100 601 50 601 25 601L0 601Z" fill="#848287"></path></svg>