<svg id="visual" viewBox="0 0 900 600" width="900" height="600" xmlns="http://www.w3.org/2000/svg" xmlns:xlink="http://www.w3.org/1999/xlink" version="1.1"><rect x="0" y="0" width="900" height="600" fill="#ffffff"></rect><path d="M0 389L25 399.8C50 410.7 100 432.3 150 443.7C200 455 250 456 300 450.8C350 445.7 400 434.3 450 431C500 427.7 550 432.3 600 427.8C650 423.3 700 409.7 750 413.3C800 417 850 438 875 448.5L900 459L900 601L875 601C850 601 800 601 750 601C700 601 650 601 600 601C550 601 500 601 450 601C400 601 350 601 300 601C250 601 200 601 150 601C100 601 50 601 25 601L0 601Z" fill="#d0d0d0"></path><path d="M0 469L25 466.3C50 463.7 100 458.3 150 459.3C200 460.3 250 467.7 300 466.5C350 465.3 400 455.7 450 459.7C500 463.7 550 481.3 600 488C650 494.7 700 490.3 750 485.7C800 481 850 476 875 473.5L900 471L900 601L875 601C850 601 800 601 750 601C700 601 650 601 600 601C550 601 500 601 450 601C400 601 350 601 300 601C250 601 200 601 150 601C100 601 50 601 25 601L0 601Z" fill="#a9a8ab"></path><path d="M0 541L25 537.3C50 533.7 100 526.3 150 529.7C200 533 250 547 300 550.2C350 553.3 400 545.7 450 537.5C500 529.3 550 520.7 600 517.3C650 514 700 516 750 518.2C800 520.3 850 522.7 875 523.8L900 525L900 601L875 601C850 601 800 601 750 601C700 601 650 601 600 601C550 601 500 601 450 601C400 601 350 601 300 601C250 601 200 601 150 601C100 601 50 601 25 601L0 601Z" fill="#848287"></path></svg>