<svg id="visual" viewBox="0 0 900 600" width="900" height="600" xmlns="http://www.w3.org/2000/svg" xmlns:xlink="http://www.w3.org/1999/xlink" version="1.1"><rect x="0" y="0" width="900" height="600" fill="#001220"></rect><path d="M0 442L21.5 441.8C43 441.7 86 441.3 128.8 439.5C171.7 437.7 214.3 434.3 257.2 429C300 423.7 343 416.3 385.8 414.7C428.7 413 471.3 417 514.2 417.8C557 418.7 600 416.3 642.8 414.5C685.7 412.7 728.3 411.3 771.2 410.7C814 410 857 410 878.5 410L900 410L900 601L878.5 601C857 601 814 601 771.2 601C728.3 601 685.7 601 642.8 601C600 601 557 601 514.2 601C471.3 601 428.7 601 385.8 601C343 601 300 601 257.2 601C214.3 601 171.7 601 128.8 601C86 601 43 601 21.5 601L0 601Z" fill="#5f5f5f"></path><path d="M0 421L21.5 421.3C43 421.7 86 422.3 128.8 429C171.7 435.7 214.3 448.3 257.2 456.7C300 465 343 469 385.8 457.8C428.7 446.7 471.3 420.3 514.2 414C557 407.7 600 421.3 642.8 434.5C685.7 447.7 728.3 460.3 771.2 453.8C814 447.3 857 421.7 878.5 408.8L900 396L900 601L878.5 601C857 601 814 601 771.2 601C728.3 601 685.7 601 642.8 601C600 601 557 601 514.2 601C471.3 601 428.7 601 385.8 601C343 601 300 601 257.2 601C214.3 601 171.7 601 128.8 601C86 601 43 601 21.5 601L0 601Z" fill="#848484"></path><path d="M0 471L21.5 477.7C43 484.3 86 497.7 128.8 502.8C171.7 508 214.3 505 257.2 504.7C300 504.3 343 506.7 385.8 505.5C428.7 504.3 471.3 499.7 514.2 498.8C557 498 600 501 642.8 503.3C685.7 505.7 728.3 507.3 771.2 500.5C814 493.7 857 478.3 878.5 470.7L900 463L900 601L878.5 601C857 601 814 601 771.2 601C728.3 601 685.7 601 642.8 601C600 601 557 601 514.2 601C471.3 601 428.7 601 385.8 601C343 601 300 601 257.2 601C214.3 601 171.7 601 128.8 601C86 601 43 601 21.5 601L0 601Z" fill="#ababab"></path><path d="M0 512L21.5 512.3C43 512.7 86 513.3 128.8 508.3C171.7 503.3 214.3 492.7 257.2 491.5C300 490.3 343 498.7 385.8 504.3C428.7 510 471.3 513 514.2 512.7C557 512.3 600 508.7 642.8 505.3C685.7 502 728.3 499 771.2 496.8C814 494.7 857 493.3 878.5 492.7L900 492L900 601L878.5 601C857 601 814 601 771.2 601C728.3 601 685.7 601 642.8 601C600 601 557 601 514.2 601C471.3 601 428.7 601 385.8 601C343 601 300 601 257.2 601C214.3 601 171.7 601 128.8 601C86 601 43 601 21.5 601L0 601Z" fill="#d4d4d4"></path><path d="M0 537L21.5 535.5C43 534 86 531 128.8 532.2C171.7 533.3 214.3 538.7 257.2 542C300 545.3 343 546.7 385.8 545C428.7 543.3 471.3 538.7 514.2 535.7C557 532.7 600 531.3 642.8 533.8C685.7 536.3 728.3 542.7 771.2 544.2C814 545.7 857 542.3 878.5 540.7L900 539L900 601L878.5 601C857 601 814 601 771.2 601C728.3 601 685.7 601 642.8 601C600 601 557 601 514.2 601C471.3 601 428.7 601 385.8 601C343 601 300 601 257.2 601C214.3 601 171.7 601 128.8 601C86 601 43 601 21.5 601L0 601Z" fill="#ffffff"></path></svg>